HIERARCHY
ROOT hips
{
  OFFSET -0.00735851563513279 12.18665635585785 0.12248523347079754
  CHANNELS 6 Xposition Yposition Zposition Yrotation Xrotation Zrotation
  JOINT spine
  {
    OFFSET 1.0244548320770264e-7 0.5955291986465454 0
    CHANNELS 3 Yrotation Xrotation Zrotation
    JOINT chest
    {
      OFFSET 0 1.2719063864449713 0
      CHANNELS 3 Yrotation Xrotation Zrotation
      JOINT upperChest
      {
        OFFSET 0 1.490802666915459 0
        CHANNELS 3 Yrotation Xrotation Zrotation
        JOINT neck
        {
          OFFSET 0 1.3131953345263365 0
          CHANNELS 3 Yrotation Xrotation Zrotation
          JOINT head
          {
            OFFSET 0 0.8653679716847534 0
            CHANNELS 3 Yrotation Xrotation Zrotation
            JOINT leftEye
            {
              OFFSET 0.20629723300226033 0.6721053123474121 0.3036841657012701
              CHANNELS 3 Yrotation Xrotation Zrotation
              End Site
              {
                OFFSET 0.20629723300226033 0.6721053123474121 0.3036841657012701
              }
            }
            JOINT rightEye
            {
              OFFSET -0.20629652100615203 0.6721066236495972 0.30368443205952644
              CHANNELS 3 Yrotation Xrotation Zrotation
              End Site
              {
                OFFSET -0.20629652100615203 0.6721066236495972 0.30368443205952644
              }
            }
          }
        }
        JOINT leftShoulder
        {
          OFFSET 0.24624172446783632 0.959903359413147 0
          CHANNELS 3 Yrotation Xrotation Zrotation
          JOINT leftUpperArm
          {
            OFFSET 0.9650355761446514 0 0
            CHANNELS 3 Yrotation Xrotation Zrotation
            JOINT leftLowerArm
            {
              OFFSET 2.4419134471639827 0 0
              CHANNELS 3 Yrotation Xrotation Zrotation
              JOINT leftHand
              {
                OFFSET 2.3874557408809456 0 0
                CHANNELS 3 Yrotation Xrotation Zrotation
                JOINT leftIndexProximal
                {
                  OFFSET 0.7029628753662109 0.06118142604827881 0.23586585000157356
                  CHANNELS 3 Yrotation Xrotation Zrotation
                  JOINT leftIndexIntermediate
                  {
                    OFFSET 0.36102771759033203 -0.001475214958190918 0.056637559086084366
                    CHANNELS 3 Yrotation Xrotation Zrotation
                    JOINT leftIndexDistal
                    {
                      OFFSET 0.22344785928726196 -0.007408857345581055 0.02531452476978302
                      CHANNELS 3 Yrotation Xrotation Zrotation
                      End Site
                      {
                        OFFSET 0.22344785928726196 -0.007408857345581055 0.02531452476978302
                      }
                    }
                  }
                }
                JOINT leftLittleProximal
                {
                  OFFSET 0.6958752870559692 0.034375786781311035 -0.29472956992685795
                  CHANNELS 3 Yrotation Xrotation Zrotation
                  JOINT leftLittleIntermediate
                  {
                    OFFSET 0.34538060426712036 -0.0030041933059692383 0.00024324655532836914
                    CHANNELS 3 Yrotation Xrotation Zrotation
                    JOINT leftLittleDistal
                    {
                      OFFSET 0.19865047931671143 0.00746917724609375 -0.010377676226198673
                      CHANNELS 3 Yrotation Xrotation Zrotation
                      End Site
                      {
                        OFFSET 0.19865047931671143 0.00746917724609375 -0.010377676226198673
                      }
                    }
                  }
                }
                JOINT leftMiddleProximal
                {
                  OFFSET 0.7272291779518127 0.09209799766540527 0.05257739871740341
                  CHANNELS 3 Yrotation Xrotation Zrotation
                  JOINT leftMiddleIntermediate
                  {
                    OFFSET 0.40590834617614746 -0.014838695526123047 0.026817932724952698
                    CHANNELS 3 Yrotation Xrotation Zrotation
                    JOINT leftMiddleDistal
                    {
                      OFFSET 0.2495119571685791 -0.026458144187927246 0.010310646146535873
                      CHANNELS 3 Yrotation Xrotation Zrotation
                      End Site
                      {
                        OFFSET 0.2495119571685791 -0.026458144187927246 0.010310646146535873
                      }
                    }
                  }
                }
                JOINT leftRingProximal
                {
                  OFFSET 0.7334893345832825 0.09136629104614258 -0.1205735495314002
                  CHANNELS 3 Yrotation Xrotation Zrotation
                  JOINT leftRingIntermediate
                  {
                    OFFSET 0.3775520920753479 -0.005917906761169434 0.001896639820188284
                    CHANNELS 3 Yrotation Xrotation Zrotation
                    JOINT leftRingDistal
                    {
                      OFFSET 0.2177620530128479 0.007703900337219238 0.0027355607599020004
                      CHANNELS 3 Yrotation Xrotation Zrotation
                      End Site
                      {
                        OFFSET 0.2177620530128479 0.007703900337219238 0.0027355607599020004
                      }
                    }
                  }
                }
                JOINT leftThumbProximal
                {
                  OFFSET 0.02235114574432373 -0.07603192329406738 0.1950724683701992
                  CHANNELS 3 Yrotation Xrotation Zrotation
                  JOINT leftThumbIntermediate
                  {
                    OFFSET 0.3551589846611023 -0.02970755100250244 0.36741212010383606
                    CHANNELS 3 Yrotation Xrotation Zrotation
                    JOINT leftThumbDistal
                    {
                      OFFSET 0.23456048965454102 -0.016631245613098145 0.2093813568353653
                      CHANNELS 3 Yrotation Xrotation Zrotation
                      End Site
                      {
                        OFFSET 0.23456048965454102 -0.016631245613098145 0.2093813568353653
                      }
                    }
                  }
                }
              }
            }
          }
        }
        JOINT rightShoulder
        {
          OFFSET -0.24624088185373694 0.9600239992141724 0
          CHANNELS 3 Yrotation Xrotation Zrotation
          JOINT rightUpperArm
          {
            OFFSET -0.9650300767908009 0 0
            CHANNELS 3 Yrotation Xrotation Zrotation
            JOINT rightLowerArm
            {
              OFFSET -2.4420125187833426 0 0
              CHANNELS 3 Yrotation Xrotation Zrotation
              JOINT rightHand
              {
                OFFSET -2.3874255620910265 0 0
                CHANNELS 3 Yrotation Xrotation Zrotation
                JOINT rightIndexProximal
                {
                  OFFSET -0.7029609084129333 0.06117355823516846 0.23587234504520893
                  CHANNELS 3 Yrotation Xrotation Zrotation
                  JOINT rightIndexIntermediate
                  {
                    OFFSET -0.3610270619392395 -0.0014804601669311523 0.05664427950978279
                    CHANNELS 3 Yrotation Xrotation Zrotation
                    JOINT rightIndexDistal
                    {
                      OFFSET -0.2234485149383545 -0.0074127912521362305 0.025317884981632233
                      CHANNELS 3 Yrotation Xrotation Zrotation
                      End Site
                      {
                        OFFSET -0.2234485149383545 -0.0074127912521362305 0.025317884981632233
                      }
                    }
                  }
                }
                JOINT rightLittleProximal
                {
                  OFFSET -0.6958779096603394 0.034366607666015625 -0.29472311586141586
                  CHANNELS 3 Yrotation Xrotation Zrotation
                  JOINT rightLittleIntermediate
                  {
                    OFFSET -0.3453786373138428 -0.003008127212524414 0.00025422871112823486
                    CHANNELS 3 Yrotation Xrotation Zrotation
                    JOINT rightLittleDistal
                    {
                      OFFSET -0.19865179061889648 0.00746917724609375 -0.010371447540819645
                      CHANNELS 3 Yrotation Xrotation Zrotation
                      End Site
                      {
                        OFFSET -0.19865179061889648 0.00746917724609375 -0.010371447540819645
                      }
                    }
                  }
                }
                JOINT rightMiddleProximal
                {
                  OFFSET -0.7272304892539978 0.09209012985229492 0.05258418060839176
                  CHANNELS 3 Yrotation Xrotation Zrotation
                  JOINT rightMiddleIntermediate
                  {
                    OFFSET -0.4059063792228699 -0.014843940734863281 0.026821313425898552
                    CHANNELS 3 Yrotation Xrotation Zrotation
                    JOINT rightMiddleDistal
                    {
                      OFFSET -0.24951326847076416 -0.026460766792297363 0.010313207283616066
                      CHANNELS 3 Yrotation Xrotation Zrotation
                      End Site
                      {
                        OFFSET -0.24951326847076416 -0.026460766792297363 0.010313207283616066
                      }
                    }
                  }
                }
                JOINT rightRingProximal
                {
                  OFFSET -0.7334906458854675 0.09135580062866211 -0.12056719791144133
                  CHANNELS 3 Yrotation Xrotation Zrotation
                  JOINT rightRingIntermediate
                  {
                    OFFSET -0.37755340337753296 -0.005923151969909668 0.0019026175141334534
                    CHANNELS 3 Yrotation Xrotation Zrotation
                    JOINT rightRingDistal
                    {
                      OFFSET -0.21775943040847778 0.007701277732849121 0.0027383523993194103
                      CHANNELS 3 Yrotation Xrotation Zrotation
                      End Site
                      {
                        OFFSET -0.21775943040847778 0.007701277732849121 0.0027383523993194103
                      }
                    }
                  }
                }
                JOINT rightThumbProximal
                {
                  OFFSET -0.022347867488861084 -0.07603061199188232 0.19507363624870777
                  CHANNELS 3 Yrotation Xrotation Zrotation
                  JOINT rightThumbIntermediate
                  {
                    OFFSET -0.3550455570220947 -0.029461026191711426 0.36754218488931656
                    CHANNELS 3 Yrotation Xrotation Zrotation
                    JOINT rightThumbDistal
                    {
                      OFFSET -0.23451131582260132 -0.016489624977111816 0.20944765955209732
                      CHANNELS 3 Yrotation Xrotation Zrotation
                      End Site
                      {
                        OFFSET -0.23451131582260132 -0.016489624977111816 0.20944765955209732
                      }
                    }
                  }
                }
              }
            }
          }
        }
      }
    }
  }
  JOINT leftUpperLeg
  {
    OFFSET 0.8483456987887621 -0.42556869983673096 0
    CHANNELS 3 Yrotation Xrotation Zrotation
    JOINT leftLowerLeg
    {
      OFFSET 0 -4.6702112872869534 0
      CHANNELS 3 Yrotation Xrotation Zrotation
      JOINT leftFoot
      {
        OFFSET -0.13096565008163452 -5.202569782733917 -0.2985280640423298
        CHANNELS 3 Yrotation Xrotation Zrotation
        JOINT leftToes
        {
          OFFSET 0.01423943042755127 -0.7568342834711075 1.213271364569664
          CHANNELS 3 Yrotation Xrotation Zrotation
          End Site
          {
            OFFSET 0.01423943042755127 -0.7568342834711075 1.213271364569664
          }
        }
      }
    }
  }
  JOINT rightUpperLeg
  {
    OFFSET -0.8483468051999807 -0.42556607723236084 0
    CHANNELS 3 Yrotation Xrotation Zrotation
    JOINT rightLowerLeg
    {
      OFFSET 0 -4.670219469177788 0
      CHANNELS 3 Yrotation Xrotation Zrotation
      JOINT rightFoot
      {
        OFFSET 0.13097601756453514 -5.202573716640472 -0.29853164963424206
        CHANNELS 3 Yrotation Xrotation Zrotation
        JOINT rightToes
        {
          OFFSET -0.014232628047466278 -0.7568355947732925 1.213272675871849
          CHANNELS 3 Yrotation Xrotation Zrotation
          End Site
          {
            OFFSET -0.014232628047466278 -0.7568355947732925 1.213272675871849
          }
        }
      }
    }
  }
}
MOTION
Frames: 10
Frame Time: 0.03333333333333333
0 11.682718080999717 0 0 0 0 0 -4.610651315171937 0 0 3.0831277533083026 0 0 0 0 0 1.5275236235667615 0 0 0 0 0 0 0 0 0 0 0 1.5275236235667615 0 0 0 0 0 0 0 0 0 0 0 0 0 0 0 0 0 0 0 0 0 0 0 0 0 0 0 0 0 0 0 0 0 0 0 0 0 0 0 0 0 0 0 0 0 0 0 0 0 0 0 0 0 0 0 0 1.5275236235667615 0 0 0 0 0 0 0 0 0 0 0 0 0 0 0 0 0 0 0 0 0 0 0 0 0 0 0 0 0 0 0 0 0 0 0 0 0 0 0 0 0 0 0 0 0 0 0 0 0 0 0 0 0 0 0 0 0 -5.826343164929014 -0.3712483961610101 -3.6333298826370974 5.838118207697276 0 0 0 0 0 0 0 0 5.826343164929014 0.3712483961610101 -3.6333298826370974 -5.838118207697276 0 0 0 0 0 0
0 4.341559812510034 0 -0.9479927721685504 -10.649870012022436 0.693899051452554 0.6479776581402708 -7.94649095271627 -0.25615335893309754 0 4.416460936498026 0 0 0 0 -0.03328339983108969 7.194156902932864 0.328620419454333 0 -0.6666666920512435 0 0 0 0 0 0 0 0 1.194190289789277 0 8.105949861211315 9.53261618883352 -24.455506757451456 0 -0.6666666920512435 0 0 0 22.99999954604251 0 0 0 0 0 0 0 0 0 0 0 0 0 0 0 0 0 0 0 0 0 0 0 0 0 0 0 0 0 0 0 0 0 0 0 0 0 0 0 0 0 0 0 0 0 0 1.8608569989354904 0 -8.105949861211315 9.53261618883352 24.455506757451456 0 0.3333333345791665 0 0 0 -25.666667141231326 0 0 0 0 0 0 0 0 0 0 0 0 0 0 0 0 0 0 0 0 0 0 0 0 0 0 0 0 0 0 0 0 0 0 0 0 0 0 0 0 0 0 0 0 0 -0.10993698168823908 -33.26345279029892 -7.945609895858507 3.0541752182697492 29.53835082790539 6.87109088438444 -0.1486042520114011 6.332733494083619 1.3142169171195581 0 0 0 -3.8293973365610277 -33.342490656684575 5.104803400772617 -3.2636715038818247 31.19518896534898 -6.967232405756235 0.19670608422488411 8.33251666984615 -1.3000986403369192 0 0 0
0 -2.9995984559796494 0 -2.085442273595389 -21.28549144576072 1.6137062713763264 1.3515487276921379 -11.27752314350558 -0.37889022760254587 0 5.749794486229348 0 0 0 0 -0.03387108732919093 12.860887424324387 0.6596722749272399 0 -1.3333333514993162 0 0 0 0 0 0 0 0 0.8608569778266877 0 11.682221588899496 21.53889137999783 -48.624571075666694 0 -1.3333333514993162 0 0 0 45.99999834632059 0 0 0 0 0 0 0 0 0 0 0 0 0 0 0 0 0 0 0 0 0 0 0 0 0 0 0 0 0 0 0 0 0 0 0 0 0 0 0 0 0 0 0 0 0 0 2.1941902737415595 0 -11.682221588899496 21.53889137999783 48.624571075666694 0 0.6666666920512435 0 0 0 -51.333332888469236 0 0 0 0 0 0 0 0 0 0 0 0 0 0 0 0 0 0 0 0 0 0 0 0 0 0 0 0 0 0 0 0 0 0 0 0 0 0 0 0 0 0 0 0 0 2.5739072326561905 -66.4888262095318 -12.2394604352435 10.748498461826701 62.492994273316754 12.879907443093522 -0.1513820978327111 12.667202763009762 2.6361953839292083 0 0 0 -10.901934002107476 -66.61637292318267 8.891572786183847 -12.434409923095293 65.74439846599546 -14.384086022553035 0.2031653770059584 16.667335845862937 -2.6131241700669907 0 0 0
0 -10.340756724469331 0 -3.533722753739337 -31.898656113942835 2.87036418832794 2.0601153593262325 -14.604407580475275 -0.35882169954800436 0 7.083127837341537 0 0 0 0 -2.6206327563755782e-17 18.527523384746267 1.0000000081226714 0 -1.999999933470495 0 0 0 0 0 0 0 0 0.5275236131855614 0 9.448814568331684 33.871239619456716 -74.80157695886935 0 -1.999999933470495 0 0 0 68.99999941678816 0 0 0 0 0 0 0 0 0 0 0 0 0 0 0 0 0 0 0 0 0 0 0 0 0 0 0 0 0 0 0 0 0 0 0 0 0 0 0 0 0 0 0 0 0 0 2.5275235172209265 0 -9.448814568331684 33.871239619456716 74.80157695886935 0 0.9999999615125247 0 0 0 -76.99999972955892 0 0 0 0 0 0 0 0 0 0 0 0 0 0 0 0 0 0 0 0 0 0 0 0 0 0 0 0 0 0 0 0 0 0 0 0 0 0 0 0 0 0 0 0 0 162.84708906778707 -79.81767448303752 -173.93490622467337 137.93564557731236 81.43445399997319 138.60670611776067 0 19.000000902791395 4.000000095034734 0 0 0 -164.33865009845522 -79.0291171145528 159.42280747486907 -153.42647129325024 77.2900657908202 -153.83874115977008 1.0966730285850864e-16 25.00000051710844 -4.000000082997355 0 0 0
0 -10.340756724469331 0 -3.533722753739337 -31.898656113942835 2.87036418832794 2.0601153593262325 -14.604407580475275 -0.35882169954800436 0 7.083127837341537 0 0 0 0 -2.6206327563755782e-17 18.527523384746267 1.0000000081226714 0 -1.999999933470495 0 0 0 0 0 0 0 0 0.5275236131855614 0 9.448814568331684 33.871239619456716 -74.80157695886935 0 -1.999999933470495 0 0 0 68.99999941678816 0 0 0 0 0 0 0 0 0 0 0 0 0 0 0 0 0 0 0 0 0 0 0 0 0 0 0 0 0 0 0 0 0 0 0 0 0 0 0 0 0 0 0 0 0 0 2.5275235172209265 0 -9.448814568331684 33.871239619456716 74.80157695886935 0 0.9999999615125247 0 0 0 -76.99999972955892 0 0 0 0 0 0 0 0 0 0 0 0 0 0 0 0 0 0 0 0 0 0 0 0 0 0 0 0 0 0 0 0 0 0 0 0 0 0 0 0 0 0 0 0 0 162.84708906778707 -79.81767448303752 -173.93490622467337 137.93564557731236 81.43445399997319 138.60670611776067 0 19.000000902791395 4.000000095034734 0 0 0 -164.33865009845522 -79.0291171145528 159.42280747486907 -153.42647129325024 77.2900657908202 -153.83874115977008 1.0966730285850864e-16 25.00000051710844 -4.000000082997355 0 0 0
0 -10.340756724469331 0 -3.533722753739337 -31.898656113942835 2.87036418832794 2.0601153593262325 -14.604407580475275 -0.35882169954800436 0 7.083127837341537 0 0 0 0 -2.6206327563755782e-17 18.527523384746267 1.0000000081226714 0 -1.999999933470495 0 0 0 0 0 0 0 0 0.5275236131855614 0 9.448814568331684 33.871239619456716 -74.80157695886935 0 -1.999999933470495 0 0 0 68.99999941678816 0 0 0 0 0 0 0 0 0 0 0 0 0 0 0 0 0 0 0 0 0 0 0 0 0 0 0 0 0 0 0 0 0 0 0 0 0 0 0 0 0 0 0 0 0 0 2.5275235172209265 0 -9.448814568331684 33.871239619456716 74.80157695886935 0 0.9999999615125247 0 0 0 -76.99999972955892 0 0 0 0 0 0 0 0 0 0 0 0 0 0 0 0 0 0 0 0 0 0 0 0 0 0 0 0 0 0 0 0 0 0 0 0 0 0 0 0 0 0 0 0 0 162.84708906778707 -79.81767448303752 -173.93490622467337 137.93564557731236 81.43445399997319 138.60670611776067 0 19.000000902791395 4.000000095034734 0 0 0 -164.33865009845522 -79.0291171145528 159.42280747486907 -153.42647129325024 77.2900657908202 -153.83874115977008 1.0966730285850864e-16 25.00000051710844 -4.000000082997355 0 0 0
0 -10.340756724469331 0 -3.533722753739337 -31.898656113942835 2.87036418832794 2.0601153593262325 -14.604407580475275 -0.35882169954800436 0 7.083127837341537 0 0 0 0 -2.6206327563755782e-17 18.527523384746267 1.0000000081226714 0 -1.999999933470495 0 0 0 0 0 0 0 0 0.5275236131855614 0 9.448814568331684 33.871239619456716 -74.80157695886935 0 -1.999999933470495 0 0 0 68.99999941678816 0 0 0 0 0 0 0 0 0 0 0 0 0 0 0 0 0 0 0 0 0 0 0 0 0 0 0 0 0 0 0 0 0 0 0 0 0 0 0 0 0 0 0 0 0 0 2.5275235172209265 0 -9.448814568331684 33.871239619456716 74.80157695886935 0 0.9999999615125247 0 0 0 -76.99999972955892 0 0 0 0 0 0 0 0 0 0 0 0 0 0 0 0 0 0 0 0 0 0 0 0 0 0 0 0 0 0 0 0 0 0 0 0 0 0 0 0 0 0 0 0 0 162.84708906778707 -79.81767448303752 -173.93490622467337 137.93564557731236 81.43445399997319 138.60670611776067 0 19.000000902791395 4.000000095034734 0 0 0 -164.33865009845522 -79.0291171145528 159.42280747486907 -153.42647129325024 77.2900657908202 -153.83874115977008 1.0966730285850864e-16 25.00000051710844 -4.000000082997355 0 0 0
0 -10.340756724469331 0 -3.533722753739337 -31.898656113942835 2.87036418832794 2.0601153593262325 -14.604407580475275 -0.35882169954800436 0 7.083127837341537 0 0 0 0 -2.6206327563755782e-17 18.527523384746267 1.0000000081226714 0 -1.999999933470495 0 0 0 0 0 0 0 0 0.5275236131855614 0 9.448814568331684 33.871239619456716 -74.80157695886935 0 -1.999999933470495 0 0 0 68.99999941678816 0 0 0 0 0 0 0 0 0 0 0 0 0 0 0 0 0 0 0 0 0 0 0 0 0 0 0 0 0 0 0 0 0 0 0 0 0 0 0 0 0 0 0 0 0 0 2.5275235172209265 0 -9.448814568331684 33.871239619456716 74.80157695886935 0 0.9999999615125247 0 0 0 -76.99999972955892 0 0 0 0 0 0 0 0 0 0 0 0 0 0 0 0 0 0 0 0 0 0 0 0 0 0 0 0 0 0 0 0 0 0 0 0 0 0 0 0 0 0 0 0 0 162.84708906778707 -79.81767448303752 -173.93490622467337 137.93564557731236 81.43445399997319 138.60670611776067 0 19.000000902791395 4.000000095034734 0 0 0 -164.33865009845522 -79.0291171145528 159.42280747486907 -153.42647129325024 77.2900657908202 -153.83874115977008 1.0966730285850864e-16 25.00000051710844 -4.000000082997355 0 0 0
0 -10.340756724469331 0 -3.533722753739337 -31.898656113942835 2.87036418832794 2.0601153593262325 -14.604407580475275 -0.35882169954800436 0 7.083127837341537 0 0 0 0 -2.6206327563755782e-17 18.527523384746267 1.0000000081226714 0 -1.999999933470495 0 0 0 0 0 0 0 0 0.5275236131855614 0 9.448814568331684 33.871239619456716 -74.80157695886935 0 -1.999999933470495 0 0 0 68.99999941678816 0 0 0 0 0 0 0 0 0 0 0 0 0 0 0 0 0 0 0 0 0 0 0 0 0 0 0 0 0 0 0 0 0 0 0 0 0 0 0 0 0 0 0 0 0 0 2.5275235172209265 0 -9.448814568331684 33.871239619456716 74.80157695886935 0 0.9999999615125247 0 0 0 -76.99999972955892 0 0 0 0 0 0 0 0 0 0 0 0 0 0 0 0 0 0 0 0 0 0 0 0 0 0 0 0 0 0 0 0 0 0 0 0 0 0 0 0 0 0 0 0 0 162.84708906778707 -79.81767448303752 -173.93490622467337 137.93564557731236 81.43445399997319 138.60670611776067 0 19.000000902791395 4.000000095034734 0 0 0 -164.33865009845522 -79.0291171145528 159.42280747486907 -153.42647129325024 77.2900657908202 -153.83874115977008 1.0966730285850864e-16 25.00000051710844 -4.000000082997355 0 0 0
0 -10.340756724469331 0 -3.533722753739337 -31.898656113942835 2.87036418832794 2.0601153593262325 -14.604407580475275 -0.35882169954800436 0 7.083127837341537 0 0 0 0 -2.6206327563755782e-17 18.527523384746267 1.0000000081226714 0 -1.999999933470495 0 0 0 0 0 0 0 0 0.5275236131855614 0 9.448814568331684 33.871239619456716 -74.80157695886935 0 -1.999999933470495 0 0 0 68.99999941678816 0 0 0 0 0 0 0 0 0 0 0 0 0 0 0 0 0 0 0 0 0 0 0 0 0 0 0 0 0 0 0 0 0 0 0 0 0 0 0 0 0 0 0 0 0 0 2.5275235172209265 0 -9.448814568331684 33.871239619456716 74.80157695886935 0 0.9999999615125247 0 0 0 -76.99999972955892 0 0 0 0 0 0 0 0 0 0 0 0 0 0 0 0 0 0 0 0 0 0 0 0 0 0 0 0 0 0 0 0 0 0 0 0 0 0 0 0 0 0 0 0 0 162.84708906778707 -79.81767448303752 -173.93490622467337 137.93564557731236 81.43445399997319 138.60670611776067 0 19.000000902791395 4.000000095034734 0 0 0 -164.33865009845522 -79.0291171145528 159.42280747486907 -153.42647129325024 77.2900657908202 -153.83874115977008 1.0966730285850864e-16 25.00000051710844 -4.000000082997355 0 0 0
